<svg width="174" height="170" viewBox="0 0 174 170" fill="none" xmlns="http://www.w3.org/2000/svg">
<path d="M171.5 85C171.5 130.509 133.723 167.5 87 167.5C40.2768 167.5 2.5 130.509 2.5 85C2.5 39.491 40.2768 2.5 87 2.5C133.723 2.5 171.5 39.491 171.5 85Z" stroke="white" stroke-width="5"/>
<g clip-path="url(#clip0)">
<path fill-rule="evenodd" clip-rule="evenodd" d="M69.8721 106.875H98.0456V110H69.8721V106.875Z" fill="white"/>
<path fill-rule="evenodd" clip-rule="evenodd" d="M96.4935 70.3508C95.8521 67.4695 94.3579 64.9101 92.2498 63.0824C90.1418 61.2546 87.5419 60.2642 84.8662 60.2696C82.1085 60.2632 79.4336 61.3144 77.2946 63.245C75.1556 65.1756 73.684 67.867 73.1291 70.8633C72.3645 70.6281 71.5757 70.5031 70.7823 70.4914C69.5567 70.4906 68.343 70.7578 67.2105 71.2776C66.0781 71.7975 65.0492 72.5598 64.1825 73.521C63.3159 74.4823 62.6286 75.6236 62.16 76.8797C61.6913 78.1358 61.4504 79.482 61.4512 80.8414C61.4512 86.5571 64.7954 91.1914 69.9511 91.1914C70.0047 91.1914 70.0526 91.1758 70.1089 91.1758V103.616H97.9303V93.0414C103.235 92.6039 106.413 87.7008 106.413 81.7071C106.409 78.7573 105.372 75.9246 103.522 73.8061C101.671 71.6876 99.1514 70.4488 96.4935 70.3508ZM83.6773 65.6102C81.3051 67.3102 79.7809 69.9883 79.7809 73.0102H76.1155C76.1155 68.6414 79.3076 64.9758 83.621 63.9477C84.4014 63.7664 84.8944 64.7352 83.6773 65.6102Z" fill="white"/>
</g>
<path d="M155.838 110H150.184L128.709 77.1289V110H123.055V67.3438H128.709L150.242 100.361V67.3438H155.838V110Z" fill="white"/>
<path d="M50.1143 91.1621H32.2139V110H26.5889V67.3438H53.0146V71.9727H32.2139V86.5625H50.1143V91.1621Z" fill="white"/>
<defs>
<clipPath id="clip0">
<rect width="47.8996" height="50" fill="white" transform="translate(58.6006 60)"/>
</clipPath>
</defs>
</svg>
